HIERARCHY
ROOT Hips
{
	OFFSET 0.00000 0.00000 0.00000
	CHANNELS 6 Xposition Yposition Zposition Zrotation Yrotation Xrotation 
	JOINT LHipJoint
	{
		OFFSET 0 0 0
		CHANNELS 3 Zrotation Yrotation Xrotation
		JOINT LeftHip
		{
			OFFSET 1.80322 -1.53100 0.99595
			CHANNELS 3 Zrotation Yrotation Xrotation
			JOINT LeftKnee
			{
				OFFSET 2.25177 -6.18669 0.00000
				CHANNELS 3 Zrotation Yrotation Xrotation
				JOINT LeftAnkle
				{
					OFFSET 2.26601 -6.22582 0.00000
					CHANNELS 3 Zrotation Yrotation Xrotation
					JOINT LeftToe
					{
						OFFSET 0.23701 -0.65119 2.15848
						CHANNELS 3 Zrotation Yrotation Xrotation
						End Site
						{
							OFFSET 0.00000 -0.00000 1.12949
						}
					}
				}
			}
		}
	}
	JOINT RHipJoint
	{
		OFFSET 0 0 0
		CHANNELS 3 Zrotation Yrotation Xrotation
		JOINT RightHip
		{
			OFFSET -1.93977 -1.53100 0.99595
			CHANNELS 3 Zrotation Yrotation Xrotation
			JOINT RightKnee
			{
				OFFSET -2.28036 -6.26523 0.00000
				CHANNELS 3 Zrotation Yrotation Xrotation
				JOINT RightAnkle
				{
					OFFSET -2.25490 -6.19528 0.00000
					CHANNELS 3 Zrotation Yrotation Xrotation
					JOINT RightToe
					{
						OFFSET -0.28375 -0.77960 2.23137
						CHANNELS 3 Zrotation Yrotation Xrotation
						End Site
						{
							OFFSET -0.00000 -0.00000 1.17899
						}
					}
				}
			}
		}
	}
	JOINT lowerback
	{
		OFFSET 0 0 0
		CHANNELS 3 Zrotation Yrotation Xrotation
		JOINT Chest
		{
			OFFSET -0.00088 2.12090 -0.02806
			CHANNELS 3 Zrotation Yrotation Xrotation
			JOINT Chest2
			{
				OFFSET -0.00286 2.09666 0.12974
				CHANNELS 3 Zrotation Yrotation Xrotation
				JOINT lowerneck
				{
					OFFSET 0 0 0
					CHANNELS 3 Zrotation Yrotation Xrotation
					JOINT Neck
					{
						OFFSET 0.07328 1.83526 0.07290
						CHANNELS 3 Zrotation Yrotation Xrotation
						JOINT Head
						{
							OFFSET -0.06683 1.74974 -0.49542
							CHANNELS 3 Zrotation Yrotation Xrotation
							End Site
							{
								OFFSET -0.03398 1.85163 -0.17573
							}
						}
					}
				}
				JOINT LeftCollar
				{
					OFFSET 0 0 0
					CHANNELS 3 Zrotation Yrotation Xrotation
					JOINT LeftShoulder
					{
						OFFSET 3.02113 1.18018 0.40602
CHANNELS 3 Zrotation Xrotation Yrotation
						JOINT LeftElbow
						{
OFFSET 0 -4.585380 -0.000000
CHANNELS 3 Zrotation Xrotation Yrotation
							JOINT LeftWrist
							{
OFFSET 0 -2.689350 -0.000000
CHANNELS 3 Zrotation Xrotation Yrotation
								JOINT lhand
								{
									OFFSET 0 0 0
CHANNELS 3 Zrotation Xrotation Yrotation
									JOINT LFingers
									{
OFFSET 0 -0.585060 -0.000000
CHANNELS 3 Zrotation Xrotation Yrotation
										End Site
										{
OFFSET 0 -0.471690 -0.000000
										}
									}
								}
								JOINT LThumb
								{
OFFSET 0 0.000000 0.000000
CHANNELS 3 Zrotation Xrotation Yrotation
									End Site
									{
OFFSET 0 -0.478890 0.478890
									}
								}
							}
						}
					}
				}
				JOINT RightCollar
				{
					OFFSET 0 0 0
					CHANNELS 3 Zrotation Yrotation Xrotation
					JOINT RightShoulder
					{
						OFFSET -2.95074 1.18843 0.31430
CHANNELS 3 Zrotation Xrotation Yrotation
						JOINT RightElbow
						{
OFFSET 0 -4.474500 -0.000000
CHANNELS 3 Zrotation Xrotation Yrotation
							JOINT RightWrist
							{
OFFSET 0 -2.938960 -0.000000
CHANNELS 3 Zrotation Xrotation Yrotation
								JOINT rhand
								{
									OFFSET 0 0 0
CHANNELS 3 Zrotation Xrotation Yrotation
									JOINT RFingers
									{
OFFSET 0 -0.405090 -0.000000
CHANNELS 3 Zrotation Xrotation Yrotation
										End Site
										{
OFFSET 0 -0.326600 -0.000000
										}
									}
								}
								JOINT RThumb
								{
OFFSET 0 0.000000 0.000000
CHANNELS 3 Zrotation Xrotation Yrotation
									End Site
									{
OFFSET 0 -0.331580 0.331580
									}
								}
							}
						}
					}
				}
			}
		}
	}
}
MOTION
Frames: 5
Frame Time: 0.008333333333333333
0.834100 14.853100 -2.510800 1.154900 7.690600 10.207900 0.000000 0.000000 0.000000 -22.463100 -12.717500 1.214200 2.300900 9.466600 27.266200 3.160400 12.666800 -39.743800 0.027800 -1.075600 -2.956900 0.000000 0.000000 0.000000 1.111400 14.173000 -40.707900 -5.142300 -13.542300 41.434000 0.387100 -11.883600 -9.320900 -0.108700 2.125900 -5.853800 -2.854500 -1.166700 -6.027800 0.072900 -1.455300 -7.284600 1.637100 -0.584900 -4.096800 6.694500 -0.309000 -14.294800 -0.627800 -2.420300 39.129000 -1.888600 -0.058200 16.374800 -0.000000 0.000000 0.000000 13.903000 -27.590200 -55.669800 156.226600 -34.923800 112.423500 22.928400 3.627100 -1.477100 0.000000 0.000000 0.000000 -7.125000 0.000000 0.000000 -2.921000 31.575300 -0.960200 -0.000000 0.000000 0.000000 -18.864700 -26.205600 31.640400 -155.769400 -35.407200 -112.160200 -25.330700 -20.487800 -6.570100 0.000000 0.000000 0.000000 7.125000 0.000000 -0.000000 1.045700 22.718200 0.560800
0.839551 14.856364 -2.520767 1.252470 7.603965 10.247273 0.000000 0.000000 0.000000 -22.576397 -12.604561 1.166836 2.279376 9.425280 27.134789 3.134473 12.678303 -39.628790 0.027264 -1.066495 -2.931729 0.000000 0.000000 0.000000 1.119380 13.699687 -41.118811 -5.193840 -13.598791 41.653390 0.372402 -11.623773 -9.031635 -0.098587 2.024673 -5.573946 -2.768243 -1.177340 -5.861283 0.123786 -1.475766 -7.215120 1.643682 -0.598538 -4.115640 6.677551 -0.270131 -14.324007 -0.766377 -2.301279 39.063636 -1.925464 -0.033714 16.348627 0.000000 0.000000 0.000000 14.052352 -27.516558 -55.644785 156.136883 -35.019190 112.372125 23.676630 4.063141 -1.509483 0.000000 0.000000 0.000000 -7.125000 0.000000 0.000000 -2.323265 31.622706 -0.760746 0.000000 0.000000 0.000000 -18.910617 -26.528884 31.845947 -155.637106 -35.545668 -112.083438 -25.719906 -20.559690 -6.437050 0.000000 0.000000 0.000000 7.125000 0.000000 0.000000 0.755181 22.841802 0.402817
0.841700 14.856213 -2.526229 1.343617 7.597333 10.253522 0.000000 0.000000 0.000000 -22.657590 -12.530994 1.132556 2.273127 9.413282 27.096760 3.123278 12.622814 -39.540581 0.027844 -1.076330 -2.958827 0.000000 0.000000 0.000000 1.035354 13.516958 -41.273635 -5.219820 -13.627178 41.763882 0.366751 -11.527113 -8.933196 -0.091129 1.946712 -5.358343 -2.705770 -1.236448 -5.738443 0.185139 -1.558332 -7.160971 1.672309 -0.641853 -4.122678 6.659819 -0.226525 -14.269856 -0.889497 -2.175270 39.045655 -1.953920 -0.003074 16.328120 0.000000 0.000000 0.000000 14.156875 -27.435488 -55.614304 155.979334 -35.186101 112.281586 24.761040 4.715540 -1.559819 0.000000 0.000000 0.000000 -7.125000 0.000000 0.000000 -1.455777 31.695349 -0.473984 0.000000 0.000000 0.000000 -19.001537 -26.850793 32.005890 -155.504605 -35.683739 -112.006278 -26.885621 -21.215882 -6.808365 0.000000 0.000000 0.000000 7.125000 0.000000 0.000000 -0.085517 22.355430 -0.046611
0.840340 14.853433 -2.525020 1.420926 7.623207 10.317891 0.000000 0.000000 0.000000 -22.697413 -12.513173 1.042083 2.275827 9.418366 27.113159 3.115647 12.590747 -39.483861 0.030280 -1.123199 -3.087865 0.000000 0.000000 0.000000 0.962761 13.596003 -41.340652 -5.217927 -13.625040 41.755741 0.396066 -11.901778 -9.059290 -0.071660 1.727210 -4.752275 -2.673180 -1.300119 -5.725386 0.240978 -1.642951 -7.145286 1.709932 -0.684739 -4.108427 6.591694 -0.202334 -14.247880 -0.910698 -2.108922 39.094213 -1.940559 0.012533 16.351240 0.000000 0.000000 0.000000 14.173880 -27.301464 -55.598309 155.863399 -35.308341 112.214693 25.482071 5.286857 -1.626087 0.000000 0.000000 0.000000 -7.125000 0.000000 0.000000 -0.878929 31.780187 -0.284294 0.000000 0.000000 0.000000 -19.109604 -27.095014 32.154455 -155.485492 -35.703628 -111.995146 -28.147418 -22.032734 -7.085928 0.000000 0.000000 0.000000 7.125000 0.000000 0.000000 -0.992831 21.955534 -0.549698
0.836596 14.852784 -2.523942 1.443140 7.607790 10.413850 0.000000 0.000000 0.000000 -22.665488 -12.474869 0.900836 2.278831 9.424262 27.131786 3.113647 12.551955 -39.449978 0.031058 -1.138055 -3.128692 0.000000 0.000000 0.000000 0.910772 13.828268 -41.355185 -5.204583 -13.610567 41.699299 0.419297 -12.217487 -9.246549 -0.059191 1.570067 -4.318859 -2.606969 -1.347630 -5.725507 0.304828 -1.706686 -7.162611 1.737814 -0.717768 -4.123200 6.598963 -0.161316 -14.236639 -1.025937 -2.002557 39.087068 -1.974162 0.040702 16.346670 0.000000 0.000000 0.000000 14.161691 -27.134057 -55.538808 155.900306 -35.269540 112.235926 25.709376 5.428047 -1.606766 0.000000 0.000000 0.000000 -7.125000 0.000000 0.000000 -0.695998 31.762468 -0.225409 0.000000 0.000000 0.000000 -19.153052 -27.328229 32.431424 -155.584451 -35.600660 -112.052832 -28.496643 -22.540243 -7.019208 0.000000 0.000000 0.000000 7.125000 0.000000 0.000000 -1.251288 22.005289 -0.691393
